# This file uses centimeters as units for non-parametric coordinates.

mtllib cpu.mtl
g default
v -0.354874 0.027964 0.315783
v -0.320752 0.027964 0.349906
v -0.344880 0.027964 0.339911
v 0.327644 0.027964 0.315783
v 0.317650 0.027964 0.339911
v 0.293522 0.027964 0.349906
v -0.354874 0.027964 -0.315783
v -0.344880 0.027964 -0.339911
v -0.320752 0.027964 -0.349906
v 0.327644 0.027964 -0.315783
v 0.293522 0.027964 -0.349906
v 0.317650 0.027964 -0.339911
v -0.329320 0.156955 0.310700
v -0.354874 0.131401 0.315783
v -0.354874 0.131401 -0.315783
v -0.329320 0.156955 -0.310700
v -0.320752 0.131401 0.349906
v -0.315669 0.156955 0.324351
v 0.288439 0.156955 0.324351
v 0.293522 0.131401 0.349906
v 0.327644 0.131401 0.315783
v 0.302090 0.156955 0.310700
v 0.302090 0.156955 -0.310700
v 0.327644 0.131401 -0.315783
v -0.315669 0.156955 -0.324351
v -0.320752 0.131401 -0.349906
v 0.293522 0.131401 -0.349906
v 0.288439 0.156955 -0.324351
v -0.325321 0.156955 0.320353
v -0.344880 0.131401 0.339911
v 0.298091 0.156955 0.320353
v 0.317650 0.131401 0.339911
v -0.344880 0.131401 -0.339911
v -0.325321 0.156955 -0.320353
v 0.317650 0.131401 -0.339911
v 0.298091 0.156955 -0.320353
v 0.288439 0.156955 0.310700
v -0.315669 0.156955 0.310700
v 0.288439 0.156955 -0.310700
v -0.315669 0.156955 -0.310700
vt 0.840122 0.743386
vt 0.726160 0.743631
vt 0.726283 0.047411
vt 0.840206 0.047680
vt 0.726479 0.772428
vt 0.842050 0.771745
vt 0.842236 0.019465
vt 0.726534 0.018415
vt 0.879881 0.738180
vt 0.879987 0.052905
vt 0.882183 0.750128
vt 0.882302 0.040979
vt 0.840142 0.743379
vt 0.726181 0.743631
vt 0.726263 0.047411
vt 0.840186 0.047673
vt 0.842073 0.771738
vt 0.726502 0.772428
vt 0.726512 0.018415
vt 0.842213 0.019458
vt 0.879967 0.052896
vt 0.879901 0.738171
vt 0.882205 0.750119
vt 0.882281 0.040969
vt 0.709787 0.750639
vt 0.699086 0.754606
vt 0.033384 0.754659
vt 0.022724 0.750296
vt 0.018317 0.739659
vt 0.018272 0.054851
vt 0.022624 0.043803
vt 0.033324 0.039841
vt 0.699027 0.039782
vt 0.709687 0.044145
vt 0.714093 0.054782
vt 0.714143 0.739581
vt 0.704808 0.794410
vt 0.732410 0.785693
vt 0.027650 0.794441
vt 0.000060 0.785613
vt 0.027602 0.000036
vt 0.000000 0.008753
vt 0.704761 0.000000
vt 0.732350 0.008828
vt 0.999996 0.705693
vt 0.886011 0.705708
vt 0.885919 0.028795
vt 0.999904 0.028779
vt 0.886015 0.734487
vt 1.000000 0.734472
vt 0.885915 0.000015
vt 0.999901 0.000000
vt 0.999996 0.705692
vt 0.886011 0.705708
vt 0.885919 0.028795
vt 0.999905 0.028779
vt 0.886015 0.734487
vt 1.000000 0.734472
vt 0.885915 0.000015
vt 0.999901 -0.000000
vt 0.699028 0.054825
vt 0.033326 0.054884
vt 0.699084 0.739563
vt 0.033383 0.739617
vn -0.706322 0.707849 0.007681
vn -0.706322 0.707849 0.007681
vn -0.653282 0.707107 0.270597
vn -0.653282 0.707107 0.270597
vn -0.706322 0.707849 -0.007681
vn -0.706322 0.707849 -0.007681
vn -0.653282 0.707106 -0.270597
vn -0.653282 0.707106 -0.270597
vn -0.007893 0.707869 0.706300
vn -0.007893 0.707869 0.706300
vn -0.270598 0.707107 0.653281
vn -0.270598 0.707107 0.653282
vn 0.007893 0.707869 0.706300
vn 0.007893 0.707869 0.706300
vn 0.270599 0.707106 0.653282
vn 0.270599 0.707106 0.653282
vn 0.706322 0.707849 0.007681
vn 0.706322 0.707849 0.007681
vn 0.653282 0.707106 0.270597
vn 0.653282 0.707106 0.270597
vn 0.706322 0.707849 -0.007681
vn 0.706322 0.707849 -0.007681
vn 0.653282 0.707107 -0.270597
vn 0.653282 0.707107 -0.270597
vn -0.007893 0.707869 -0.706299
vn -0.007893 0.707869 -0.706299
vn -0.270599 0.707106 -0.653282
vn -0.270599 0.707106 -0.653282
vn 0.007893 0.707869 -0.706299
vn 0.007893 0.707869 -0.706299
vn 0.270598 0.707107 -0.653281
vn 0.270598 0.707107 -0.653282
vn -0.015653 0.000000 0.999878
vn -0.015653 0.000000 0.999878
vn 0.015653 0.000000 0.999878
vn 0.015653 0.000000 0.999878
vn -0.015653 0.000000 -0.999878
vn -0.015653 0.000000 -0.999878
vn 0.015653 0.000000 -0.999878
vn 0.015653 0.000000 -0.999878
vn 0.999884 0.000000 0.015240
vn 0.999884 0.000000 0.015240
vn 0.999884 0.000000 -0.015240
vn 0.999884 0.000000 -0.015240
vn -0.999884 0.000000 -0.015240
vn -0.999884 0.000000 -0.015240
vn -0.999884 0.000000 0.015240
vn -0.999884 0.000000 0.015240
vn -0.923880 0.000000 0.382683
vn -0.923880 0.000000 0.382683
vn -0.382683 0.000000 0.923880
vn -0.382683 0.000000 0.923880
vn 0.382683 0.000000 0.923880
vn 0.382683 0.000000 0.923880
vn 0.923880 0.000000 0.382683
vn 0.923880 0.000000 0.382683
vn -0.923880 0.000000 -0.382683
vn -0.923880 0.000000 -0.382683
vn -0.382683 0.000000 -0.923880
vn -0.382683 0.000000 -0.923880
vn 0.382683 0.000000 -0.923880
vn 0.382683 0.000000 -0.923880
vn 0.923880 0.000000 -0.382683
vn 0.923880 0.000000 -0.382683
vn 0.000000 1.000000 -0.000000
vn 0.000000 1.000000 -0.000000
vn 0.000000 1.000000 -0.000000
vn 0.000000 1.000000 -0.000001
vn 0.000000 1.000000 -0.000000
vn 0.000000 1.000000 -0.000000
vn 0.000000 1.000000 -0.000000
vn 0.000000 1.000000 -0.000001
vn 0.000000 1.000000 0.000000
vn 0.000000 1.000000 0.000000
vn 0.000000 1.000000 0.000000
vn 0.000000 1.000000 0.000000
vn 0.000000 1.000000 0.000001
vn 0.000000 1.000000 0.000000
vn 0.000000 1.000000 0.000000
vn 0.000000 1.000000 0.000001
s 1
g pCube2
usemtl lambert1SG
f 13/21/1 14/16/2 30/20/3 29/24/4
f 14/16/2 13/21/1 16/22/5 15/13/6
f 15/13/6 16/22/5 34/23/7 33/17/8
s 2
f 17/41/9 18/32/10 29/31/11 30/42/12
f 18/32/10 17/41/9 20/43/13 19/33/14
f 19/33/14 20/43/13 32/44/15 31/34/16
s 3
f 21/1/17 22/9/18 31/11/19 32/6/20
f 22/9/18 21/1/17 24/4/21 23/10/22
f 23/10/22 24/4/21 35/7/23 36/12/24
s 4
f 25/27/25 26/39/26 33/40/27 34/28/28
f 26/39/26 25/27/25 28/26/29 27/37/30
f 27/37/30 28/26/29 36/25/31 35/38/32
s 5
f 17/45/33 2/46/34 6/47/35 20/48/36
s 6
f 9/53/37 26/54/38 27/55/39 11/56/40
s 7
f 21/1/41 4/2/42 10/3/43 24/4/44
s 8
f 15/13/45 7/14/46 1/15/47 14/16/48
f 1/15/47 3/19/49 30/20/50 14/16/48
s 5
f 3/49/51 2/46/34 17/45/33 30/50/52
f 6/47/35 5/51/53 32/52/54 20/48/36
s 7
f 5/5/55 4/2/42 21/1/41 32/6/56
s 8
f 15/13/45 33/17/57 8/18/58 7/14/46
s 6
f 33/57/59 26/54/38 9/53/37 8/58/60
f 27/55/39 35/59/61 12/60/62 11/56/40
s 7
f 35/7/63 24/4/44 10/3/43 12/8/64
s 9
f 18/32/65 38/62/66 13/30/67 29/31/68
f 19/33/69 37/61/70 38/62/66 18/32/65
f 22/35/71 37/61/70 19/33/69 31/34/72
f 23/36/73 39/63/74 37/61/70 22/35/71
f 38/62/66 37/61/70 39/63/74 40/64/75
f 13/30/67 38/62/66 40/64/75 16/29/76
f 36/25/77 28/26/78 39/63/74 23/36/73
f 40/64/75 39/63/74 28/26/78 25/27/79
f 16/29/76 40/64/75 25/27/79 34/28/80
g default
v 0.500000 -0.000000 0.500000
v 0.500000 0.039239 0.500000
v 0.500000 0.039239 -0.500000
v 0.500000 -0.000000 -0.500000
v -0.500000 -0.000000 0.450005
v -0.450005 -0.000000 0.500000
v -0.485357 -0.000000 0.485357
v -0.500000 0.039239 0.450005
v -0.485357 0.039239 0.485357
v -0.450005 0.039239 0.500000
v -0.485357 0.039239 -0.485357
v -0.500000 0.039239 -0.450005
v -0.450005 0.039239 -0.500000
v -0.500000 -0.000000 -0.450005
v -0.485357 -0.000000 -0.485357
v -0.450005 -0.000000 -0.500000
v -0.475002 -0.000000 -0.475003
v -0.475002 0.039239 -0.475003
v -0.475002 0.039239 0.475003
v -0.475002 -0.000000 0.475003
v 0.000000 0.039239 0.000000
v 0.000000 -0.000000 0.000000
v 0.498348 -0.000000 0.498348
v 0.500000 -0.000000 0.498387
vt 0.892371 0.889175
vt 0.892371 0.000000
vt 0.927261 0.000000
vt 0.927261 0.889175
vt 1.000000 0.834192
vt 0.965006 0.834192
vt 0.965006 0.031528
vt 1.000000 0.031528
vt 1.000000 0.865720
vt 0.965006 0.865720
vt 0.965006 0.000000
vt 1.000000 0.000000
vt 0.013020 0.876154
vt 0.000000 0.844720
vt 0.000000 0.044454
vt 0.013020 0.013020
vt 0.044454 0.000000
vt 0.889175 0.000000
vt 0.889175 0.889175
vt 0.044454 0.889175
vt 0.889175 0.000000
vt 0.889175 0.889175
vt 0.044454 0.889175
vt 0.013020 0.876154
vt 0.000000 0.844721
vt 0.000000 0.044454
vt 0.013020 0.013020
vt 0.044454 0.000000
vt 0.963630 0.845969
vt 0.928688 0.845969
vt 0.928688 0.000000
vt 0.963630 0.000000
vt 0.928688 0.877450
vt 0.963630 0.877450
vt 0.963630 0.845969
vt 0.928688 0.845969
vt 0.928688 0.000000
vt 0.963630 0.000000
vt 0.928688 0.877450
vt 0.963630 0.877450
vt 0.022227 0.022227
vt 0.022227 0.866948
vt 0.022227 0.022227
vt 0.022227 0.866948
vt 0.444588 0.444587
vt 0.444588 0.444588
vt 0.887706 0.887706
vt 0.889175 0.887740
vt 0.892371 0.887740
vn -0.014859 0.000000 0.999890
vn -0.014859 0.000000 0.999890
vn 0.000000 0.000000 1.000000
vn 0.000000 0.000000 1.000000
vn -0.014859 0.000000 -0.999890
vn -0.014859 0.000000 -0.999890
vn 0.000000 0.000000 -1.000000
vn 0.000000 0.000000 -1.000000
vn 1.000000 0.000000 0.000000
vn 1.000000 0.000000 0.000000
vn 1.000000 0.000000 0.000000
vn -0.999878 0.000000 -0.015653
vn -0.999878 0.000000 -0.015653
vn -0.999878 0.000000 0.015653
vn -0.999878 0.000000 0.015653
vn -0.923880 0.000000 0.382683
vn -0.923880 0.000000 0.382683
vn -0.382683 0.000000 0.923880
vn -0.382683 0.000000 0.923880
vn -0.923880 0.000000 -0.382683
vn -0.923880 0.000000 -0.382683
vn -0.382682 0.000000 -0.923880
vn -0.382682 0.000000 -0.923880
vn 0.000000 1.000000 -0.000000
vn 0.000000 1.000000 -0.000000
vn 0.000000 1.000000 0.000000
vn 0.000000 -1.000000 -0.000000
vn -0.000000 -1.000000 -0.000000
vn 0.000000 -1.000000 -0.000002
vn 0.000000 -1.000000 -0.000002
vn 0.000000 1.000000 0.000000
vn 0.000000 1.000000 0.000001
vn -0.000001 -1.000000 -0.000002
vn 0.000000 -1.000000 0.000000
vn 0.000001 -1.000000 -0.000000
vn -0.000000 -1.000000 -0.000000
vn 0.000000 1.000000 0.000000
vn 0.000000 1.000000 0.000000
vn 0.000000 1.000000 0.000000
vn 0.000000 1.000000 0.000000
vn 0.000000 1.000000 -0.000001
vn 0.000001 -1.000000 0.000002
vn 0.000001 -1.000000 0.000000
vn 0.000000 1.000000 0.000000
vn -0.000000 -1.000000 0.000000
vn -0.000000 -1.000000 0.000000
vn 0.000000 -1.000000 -0.000000
vn 1.000000 0.000000 0.000000
vn 1.000000 0.000000 0.000000
s 1
g pCube1
usemtl lambert2SG
f 50/93/81 46/94/82 41/95/83 42/96/84
s 2
f 56/99/85 53/100/86 43/101/87 44/102/88
s 3
f 41/65/89 64/113/90 42/68/91
s 4
f 52/69/92 54/70/93 45/71/94 48/72/95
f 45/71/94 47/75/96 49/76/97 48/72/95
s 1
f 47/97/98 46/94/82 50/93/81 49/98/99
s 4
f 52/69/92 51/73/100 55/74/101 54/70/93
s 2
f 51/103/102 53/100/86 56/99/85 55/104/103
s 5
f 43/83/104 58/106/105 61/109/106
s 6
f 60/108/107 63/111/108 41/86/109 46/87/110
s 5
f 51/77/111 58/106/105 53/84/112
s 6
f 55/91/113 57/105/114 54/90/115
f 56/92/116 57/105/114 55/91/113
s 5
f 51/77/111 52/78/117 58/106/105
f 49/80/118 59/107/119 48/79/120
f 50/81/121 59/107/119 49/80/118
s 6
f 47/88/122 60/108/107 46/87/110
f 45/89/123 60/108/107 47/88/122
s 5
f 59/107/119 58/106/105 52/78/117 48/79/120
f 42/82/124 59/107/119 50/81/121
f 43/83/104 61/109/106 42/82/124
s 6
f 63/111/108 64/112/125 41/86/109
f 57/105/114 60/108/107 45/89/123 54/90/115
f 44/85/126 62/110/127 57/105/114
s 5
f 59/107/119 61/109/106 58/106/105
f 53/84/112 58/106/105 43/83/104
f 42/82/124 61/109/106 59/107/119
s 6
f 60/108/107 62/110/127 63/111/108
f 44/85/126 64/112/125 63/111/108 62/110/127
s 3
f 42/68/91 64/113/90 44/66/128 43/67/129
s 6
f 44/85/126 57/105/114 56/92/116
f 57/105/114 62/110/127 60/108/107
